# xmcd CD database file
# Copyright (C) 1993-1998 Ti Kan
#
# Track frame offsets:
# 150
# 17712
# 47240
# 79414
# 108737
# 134334
# 158052
# 177034
# 199142
# 217967
# 243015
# 268637
#
# Disc length: 4252 seconds
#
# Revision: 0
# Processed by: cddbd v1.4b41PL1 Copyright (c) Steve Scherf et al.
# Submitted via: inCDius 1.1b9
#
DISCID=a2109a0c
DTITLE=Howard and the White Boys - Guess Who's Coming to Dinner
DYEAR=1900
DGENRE=
TTITLE0=Heat Seeking Missile
TTITLE1=Bad Attitude
TTITLE2=What Would I Do?
TTITLE3=One Good Woman
TTITLE4=Tight Pants
TTITLE5=When the Rug's Pulled Out
TTITLE6=Be Careful What You Ask For
TTITLE7=Guess Who's Coming to Dinner
TTITLE8=Don't You Leave Me
TTITLE9=King Jack and Two Queens
TTITLE10=You've Been Gone Too Long
TTITLE11=Call Muddy Waters
EXTD=
EXTT0=
EXTT1=
EXTT2=
EXTT3=
EXTT4=
EXTT5=
EXTT6=
EXTT7=
EXTT8=
EXTT9=
EXTT10=
EXTT11=
PLAYORDER=
